<?xml version="1.0" encoding="utf-8" ?><svg xmlns="http://www.w3.org/2000/svg" xmlns:xlink="http://www.w3.org/1999/xlink" width="1080" height="1080" viewBox="0 0 1080 1080"><defs><linearGradient id="gradient_0" gradientUnits="userSpaceOnUse" x1="471.27649" y1="1114.4788" x2="613.20703" y2="-38.608421"><stop offset="0" stop-color="#A48FE0"/><stop offset="1" stop-color="#CDC3F6"/></linearGradient></defs><path fill="url(#gradient_0)" d="M135.229 0L950.309 0C950.27 1.4907 950.06 3.3448 950.553 4.6852C953.955 6.59913 962.612 6.00022 966.844 7.8135C987.34 16.5965 1006.16 27.7905 1023.42 42.2247C1031.55 49.9064 1042.24 59.5106 1048.81 68.3315C1053.77 74.9937 1054.93 81.005 1060.56 87.7029C1062.62 97.3066 1066.29 96.7345 1068.4 108.603C1069.63 111.686 1070.04 112.704 1071.9 115.596C1075.32 122.745 1072.44 129.386 1074.52 135.238L1075.84 134.846L1075.46 134.849C1076.96 135.772 1078.32 136.747 1080 137.247L1080 936.521C1077.63 937.472 1076.5 938.093 1074.28 939.371C1073.96 944.883 1073.94 952.187 1072.01 957.208C1070.49 961.17 1068.46 965.017 1067.09 969.131C1066.37 971.291 1067.08 974.513 1065.8 975.749C1065.36 976.172 1063 977.492 1062.61 978.161C1059.23 983.94 1056.18 990.738 1052.58 996.313C1044.21 1009.25 1035.56 1020.5 1024.06 1030.8C1020.68 1033.83 1016.02 1036.91 1014.11 1040.55C1013.47 1041.78 1012.41 1043.14 1011.05 1043.49C1008.88 1044.05 1007.77 1043.37 1006.11 1044.99C1004.51 1052.44 973.268 1064.56 965.75 1067.85C959.274 1070.68 957.488 1065.87 951.32 1072.24C943.041 1074.01 935.831 1074.06 927.449 1074.34C925.338 1076.29 923.722 1077.68 921.965 1080L166.35 1080C165.567 1078.52 164.68 1076.23 163.999 1074.64C157.095 1073.97 139.841 1074.61 134.384 1070.79C131.312 1068.65 120.261 1066.44 115.289 1064.51C91.4844 1055.26 71.2812 1041.16 53.6707 1022.64C36.0425 1004.1 21.5541 978.648 14.0133 954.21C12.6542 949.805 12.1155 945.157 10.9937 940.686C7.67055 927.445 5.42143 914.923 5.7591 901.18C7.52672 896.91 6.27282 809.395 6.28605 797.82L6.35002 667.332C6.35195 645.287 6.82779 621.282 6.26558 599.408C6.86688 568.905 6.37436 535.427 6.22518 504.85C6.96188 488.404 6.34856 466.916 6.34774 450.085L6.34664 344.067L6.32671 231.501C6.3214 207.836 6.75658 183.817 5.74333 160.229C5.54635 147.547 7.85027 139.994 11.456 128.258C13.7097 120.922 11.8602 113.64 18.0486 107.32C19.6493 95.3122 30.9773 74.6676 38.5381 64.8912C43.7859 58.1054 52.9496 49.0268 58.5273 42.0877C60.1497 40.0694 70.1199 32.8383 72.6551 30.7849C76.0427 27.7531 79.0866 24.7915 83.1459 22.7195C88.1475 18.2552 112.392 8.7094 120.065 7.03246C123.747 6.22788 127.438 5.84971 131.259 5.64634L135.229 0Z"/><path fill="#FEFEFE" d="M895.607 170.907C896.728 171.051 896.617 171.142 897.694 171.658C901.669 176.274 899.416 194.34 899.022 200.913C898.581 208.975 898.317 217.045 898.231 225.118C897.668 261.467 898.143 297.964 897.775 334.325C897.727 339.137 897.873 344.113 897.699 348.901C897.298 359.982 898.29 371.468 896.513 382.414C896.083 385.057 887.706 392.264 885.72 394.619C877.051 404.904 868.804 415.452 859.533 425.208C845.593 440.162 829.917 453.175 815.83 467.964C808.069 475.898 800.793 484.545 792.983 492.405C777.808 507.678 762.568 522.856 748.067 538.784C743.521 543.892 739.345 549.474 734.932 554.675C724.692 566.745 713.833 577.592 701.95 588.035C696.001 593.263 689.903 599.981 684.378 605.792L649.031 643.172C639.293 653.323 629.057 663.582 619.561 673.882C610.401 683.818 602.44 695.191 592.789 704.983C583.971 714.225 573.658 722.063 564.953 731.419C538.63 759.728 511.936 787.734 485.186 815.637C476.458 825.186 470.11 836.569 460.248 845.088C454.436 850.108 452.973 850.898 447.314 844.67C419.049 813.666 387.402 786.086 358.146 755.994C345.226 742.461 335.123 729.506 320.441 717.671C290.649 693.655 262.998 664.333 235.755 637.428C232.201 634.507 181.279 582.382 180.717 581.098C180.088 579.66 179.642 577.741 180.235 576.24C192.669 568.422 208.724 547.349 219.406 535.591C231.06 522.763 243.457 510.601 255.366 498.01C261.136 491.91 267.088 485.983 272.849 479.878C275.881 476.665 278.636 473.05 281.918 470.097C283.333 468.824 285.79 466.883 287.777 466.697C289.953 466.494 291.417 468.504 292.776 469.955C301.157 478.903 310.323 487.035 318.852 495.876C324.707 501.945 330.809 507.915 336.414 514.211C342.303 520.825 347.733 527.704 353.976 534.017C374.669 554.945 397.044 574.197 418.597 594.203C430.323 605.087 441.311 616.694 453.15 627.515C465.087 620.129 474.764 603.77 483.997 593.887C489.891 587.578 497.254 580.869 503.518 574.629C513.505 564.601 523.383 554.466 533.152 544.226C560.776 515.587 586.263 485.149 614.077 456.689C621.861 448.724 630.352 441.228 638.207 433.14L736.161 330.734L813.952 248.389C833.721 227.111 852.998 205.013 874.085 185.083C881.357 178.21 885.84 173.681 895.607 170.907Z"/><path fill="#FEFEFE" d="M481.975 190.094C488.607 190.034 508.796 189.115 513.62 191.848C520.27 195.615 534.154 216.417 539.162 223.373L561.014 253.184C575.93 273.54 591.301 293.578 605.1 314.758C612.413 325.984 624.334 339.827 629.39 352.004C624.385 358.971 617.844 364.247 612.347 370.835C593.146 393.847 572.131 415.546 551.833 437.604C545.445 444.678 536.918 450.668 530.374 457.37C522.058 465.887 514.472 474.559 505.215 482.238C496.222 489.699 488.601 499.733 481.005 508.716C474.029 516.771 468.606 525.705 460.374 533.178C454.917 538.131 452.294 544.131 444.852 536.734C420.988 513.018 396.505 490.166 372.094 467.037C369.418 464.501 366.891 461.859 366.357 458.106C364.87 447.663 365.378 436.904 365.438 426.361C365.528 411.889 365.538 397.417 365.471 382.946L365.375 191.463C391.775 191.331 418.174 190.979 444.568 190.407C457.057 190.197 469.461 190.37 481.975 190.094Z"/><path fill="#FEFEFE" d="M895.059 472.886C896.748 472.961 897.467 472.811 898.782 473.852C899.834 480.259 899.049 504.074 899.047 512.215L899.554 588.479C900.474 651.955 900.687 715.438 900.195 778.919C900.256 799.152 900.128 819.386 899.811 839.617C899.686 847.461 899.985 857.045 899.33 864.686C893.266 865.825 878.643 865.296 871.367 865.415C847.807 865.805 824.243 865.856 800.681 865.57C788.366 865.518 775.009 865.818 762.769 864.791C761.239 864.663 757.094 863.879 756.118 862.939C747.138 854.292 739.63 841.448 732.479 831.514C727.204 824.185 721.854 817.3 716.589 810.355C706.701 797.66 698.114 785.842 687.502 771.758C682.919 765.676 659.185 736.657 655.502 728.176C654.586 726.068 665.55 716.128 669.021 712.631C677.034 704.617 684.971 696.527 692.831 688.364C706.062 674.632 719.391 660.623 732.208 646.512C736.832 641.674 740.531 635.766 744.955 630.819C756.488 618.708 768.087 604.879 780.361 593.552C800.749 574.738 819.663 555.128 838.57 534.859C853.326 519.041 867.345 502.439 882.501 486.97C887.256 482.116 889.471 477.731 895.059 472.886Z"/><defs><linearGradient id="gradient_1" gradientUnits="userSpaceOnUse" x1="0.46472603" y1="706.66498" x2="6.4796557" y2="706.62598"><stop offset="0" stop-color="#A599D5" stop-opacity="0.77254903"/><stop offset="1" stop-color="#B5A9EB" stop-opacity="0.86274511"/></linearGradient></defs><path fill="url(#gradient_1)" d="M2.83653 593.11C3.56073 590.938 3.22881 580.225 3.20184 577.23C3.03299 558.48 3.25629 539.715 3.99174 520.992C4.22231 520.799 4.45289 520.606 4.68346 520.412C8.07257 522.888 3.63966 591.452 6.26558 599.408C6.82779 621.282 6.35195 645.287 6.35002 667.332L6.28605 797.82C6.27282 809.395 7.52672 896.91 5.7591 901.18L5.32315 901.007C3.44618 902.565 2.09069 902.383 0 901.228L0 582.333C0.873876 585.484 0.548157 605.023 0.587903 610.093L1.05142 680.388C1.0372 684.739 0.537899 700.296 1.4524 703.367L1.2997 703.008C2.22304 700.929 1.86907 681.892 1.86812 678.508L1.83358 619.496C1.83158 611.436 1.41915 597.604 1.94317 590.043C2.53582 596.547 1.51295 609.747 2.36969 615.095C2.91623 607.464 2.24168 600.208 2.83653 593.11Z"/><path fill="#A79FD5" fill-opacity="0.76078433" d="M0 167.051C2.15415 164.712 2.16446 164.276 5.24578 165.126L5.28111 165.811L4.68558 166.426L4.97056 166.554L3.80861 166.169L2.97421 166.66C2.58156 175.003 2.84428 184.888 2.85985 193.325L2.88315 238.06L3.04945 377.574L3.04849 467.571L3.12223 490.033C3.0996 494.201 2.82874 500.329 3.16646 504.25C1.38663 531.895 4.1957 565.27 2.83653 593.11C2.24168 600.208 2.91623 607.464 2.36969 615.095C1.51295 609.747 2.53582 596.547 1.94317 590.043C1.41915 597.604 1.83158 611.436 1.83358 619.496L1.86812 678.508C1.86907 681.892 2.22304 700.929 1.2997 703.008L1.4524 703.367C0.537899 700.296 1.0372 684.739 1.05142 680.388L0.587903 610.093C0.548157 605.023 0.873876 585.484 0 582.333L0 167.051Z"/><defs><linearGradient id="gradient_2" gradientUnits="userSpaceOnUse" x1="2.7389524" y1="337.50848" x2="6.1986609" y2="337.48865"><stop offset="0" stop-color="#B9B2EB" stop-opacity="0.76078433"/><stop offset="1" stop-color="#BEB4ED" stop-opacity="0.81568629"/></linearGradient></defs><path fill="url(#gradient_2)" d="M5.74333 160.229C6.75658 183.817 6.3214 207.836 6.32671 231.501L6.34664 344.067L6.34774 450.085C6.34856 466.916 6.96188 488.404 6.22518 504.85L4.79123 504.702L5.11379 503.769C4.82224 503.35 4.99298 503.509 4.62937 503.264C4.34963 504.001 4.31984 503.721 3.16646 504.25C2.82874 500.329 3.0996 494.201 3.12223 490.033L3.04849 467.571L3.04945 377.574L2.88315 238.06L2.85985 193.325C2.84428 184.888 2.58156 175.003 2.97421 166.66L3.80861 166.169L4.97056 166.554L4.68558 166.426L5.28111 165.811L5.24578 165.126C5.33112 163.608 5.57634 161.77 5.74333 160.229Z"/><path fill="#B7B0E5" fill-opacity="0.81960785" d="M3.16646 504.25C4.31984 503.721 4.34963 504.001 4.62937 503.264C4.99298 503.509 4.82224 503.35 5.11379 503.769L4.79123 504.702L6.22518 504.85C6.37436 535.427 6.86688 568.905 6.26558 599.408C3.63966 591.452 8.07257 522.888 4.68346 520.412C4.45289 520.606 4.22231 520.799 3.99174 520.992C3.25629 539.715 3.03299 558.48 3.20184 577.23C3.22881 580.225 3.56073 590.938 2.83653 593.11C4.1957 565.27 1.38663 531.895 3.16646 504.25Z"/><path fill="#B7B0E5" fill-opacity="0.086274512" d="M72.6551 30.7849C72.4085 29.0525 72.0731 29.2156 70.6633 27.6174C72.0129 25.7141 74.1668 24.282 75.9861 22.8747C81.1004 18.9186 78.7787 21.0022 83.1459 22.7195C79.0866 24.7915 76.0427 27.7531 72.6551 30.7849Z"/><path fill="#B7B0E5" fill-opacity="0.05882353" d="M1068.4 108.603L1069.21 107.037L1069.97 106.822C1073.35 109.544 1072.22 112.404 1071.9 115.596C1070.04 112.704 1069.63 111.686 1068.4 108.603Z"/></svg>