<svg width="605" height="456" viewBox="0 0 605 456" fill="none" xmlns="http://www.w3.org/2000/svg">
<g clip-path="url(#clip0_16_146)">
<path d="M601.348 0H348.767C346.75 0 345.115 1.6326 345.115 3.64652V125.805C345.115 127.819 346.75 129.451 348.767 129.451H601.348C603.365 129.451 605 127.819 605 125.805V3.64652C605 1.6326 603.365 0 601.348 0Z" fill="#090814"/>
<path d="M601.348 1.2155H348.767C347.423 1.2155 346.333 2.3039 346.333 3.64651V125.805C346.333 127.147 347.423 128.236 348.767 128.236H601.348C602.693 128.236 603.783 127.147 603.783 125.805V3.64651C603.783 2.3039 602.693 1.2155 601.348 1.2155Z" fill="#F2F2F2"/>
<path d="M372.264 422.281C373.195 422.281 374.118 422.117 374.992 421.799L434.211 400.307C435.853 399.711 437.255 398.594 438.201 397.128C439.147 395.661 439.586 393.926 439.45 392.186C439.315 390.447 438.612 388.8 437.45 387.498C436.288 386.195 434.731 385.308 433.017 384.973L269.464 353C268.141 352.742 266.773 352.821 265.489 353.231L219.789 367.856C218.14 368.383 216.706 369.432 215.705 370.844C214.704 372.255 214.189 373.954 214.237 375.683C214.286 377.412 214.896 379.078 215.976 380.431C217.055 381.784 218.546 382.751 220.223 383.185L370.255 422.025C370.911 422.196 371.586 422.282 372.264 422.281L372.264 422.281Z" fill="#090814"/>
<path d="M252.487 347.104L166.595 357.412L182.255 387.567L257.982 376.592C264.218 381.008 272.883 382.973 281.893 381.3C297.656 378.371 308.468 365.438 306.039 352.408C303.611 339.378 288.864 331.197 273.1 334.124C264.092 335.796 256.714 340.745 252.487 347.104Z" fill="#ED9DA0"/>
<path d="M133.224 105.097C136.523 92.9185 143.139 81.8908 152.335 73.2391C161.531 64.5873 172.949 58.6499 185.32 56.0861C197.692 53.5224 210.533 54.4326 222.417 58.7157C234.302 62.9988 244.765 70.4872 252.646 80.3495C260.526 90.2117 265.515 102.062 267.058 114.584C268.601 127.107 266.639 139.811 261.389 151.287C256.138 162.763 247.806 172.561 237.316 179.594C226.826 186.627 214.589 190.619 201.964 191.127L166.421 271.876L116.035 200.204C116.035 200.204 134.921 186.126 147.909 168.01C140.444 159.553 135.195 149.379 132.632 138.4C130.07 127.421 130.273 115.979 133.224 105.097Z" fill="#ED9DA0"/>
<path d="M64.0802 246.058C68.5905 234.956 76.2942 225.438 86.2185 218.705C96.1427 211.973 107.842 208.328 119.84 208.231C150.791 207.933 190.188 216.015 191.813 258.73C194.502 329.454 191.813 300.987 191.813 300.987C191.813 300.987 213.18 354.114 191.813 379.739C170.445 405.363 151.814 455.869 151.814 455.869H21.974C21.974 455.869 44.3886 396.716 40.5372 356.359C37.9243 328.964 50.3872 279.876 64.0802 246.058Z" fill="#A894E2"/>
<path d="M0.1552 270.861C3.71203 277.264 13.9845 276.901 19.0532 271.61C24.1218 266.318 24.9684 258.249 24.1729 250.97C23.3775 243.691 21.2296 236.532 21.3775 229.212C21.6599 215.242 30.1923 202.822 39.5652 192.448C48.938 182.074 59.6548 172.543 66.0582 160.12L66.8318 159.325C64.096 150.301 70.7313 141.083 78.201 135.319C85.6707 129.554 94.6285 125.155 99.7288 117.22C104.068 110.471 104.945 102.166 106.844 94.3725C114.201 64.1757 139.636 39.1277 169.975 32.1994C200.314 25.271 234.124 36.7915 253.893 60.7935L253.418 59.7986C266.26 62.3943 277.184 72.7997 280.387 85.4859C281.315 89.161 281.623 93.112 280.387 96.6959C279.151 100.28 276.144 103.41 272.396 104.004C268.375 104.64 264.353 102.278 261.875 99.0522C259.397 95.8262 258.162 91.846 256.973 87.9582C252.511 104.329 238.501 117.722 221.928 121.463C222.219 123.699 221.899 125.972 221.003 128.042C220.106 130.111 218.667 131.901 216.837 133.221C215.006 134.542 212.853 135.344 210.604 135.544C208.354 135.743 206.093 135.332 204.058 134.355L203.105 133.449L189.063 134.079C192.838 139.214 195.527 145.06 196.968 151.265C198.409 157.469 198.572 163.901 197.447 170.17C196.322 176.439 193.932 182.414 190.423 187.733C186.913 193.051 182.358 197.601 177.033 201.107C168.554 206.688 158.541 209.372 148.702 211.882C138.862 214.391 128.827 216.881 120.151 222.153C111.475 227.424 104.205 236.029 103.206 246.121C102.208 256.213 109.177 267.23 119.266 268.389L96.2365 282.508C96.9218 299.868 84.017 316.805 67.0788 320.777C68.6292 325.972 70.1794 331.167 71.7294 336.363C62.3078 333.017 51.9928 336.064 42.0447 337.078C32.0967 338.092 20.0349 335.68 16.2127 326.454C12.1482 316.644 19.9089 306.242 27.1278 298.448C12.43 299.912 -1.66033 285.503 0.151559 270.867L0.1552 270.861Z" fill="#090814"/>
<path d="M282.481 395.333L198.84 417.394L218.523 445.099L292.005 423.775C298.792 427.287 307.647 428.039 316.338 425.138C331.545 420.061 340.462 405.757 336.254 393.19C332.047 380.623 316.307 374.553 301.097 379.63C292.406 382.532 285.785 388.451 282.479 395.334L282.481 395.333Z" fill="#ED9DA0"/>
<path d="M116.035 300.987C116.035 300.987 119.686 461.213 172.011 455.869C224.335 450.526 241.654 443.8 241.654 443.8C241.654 443.8 252.24 403.445 233.956 402.482C215.673 401.519 191.813 397.027 191.813 397.027V280.819" fill="#A894E2"/>
<path d="M414.126 25.3298H408.628C407.66 25.3298 406.875 26.1134 406.875 27.0801V28.2847C406.875 29.2513 407.66 30.035 408.628 30.035H414.126C415.095 30.035 415.879 29.2513 415.879 28.2847V27.0801C415.879 26.1134 415.095 25.3298 414.126 25.3298Z" fill="#A894E2"/>
<path d="M463.212 25.3298H457.714C456.745 25.3298 455.961 26.1134 455.961 27.0801V28.2847C455.961 29.2513 456.745 30.035 457.714 30.035H463.212C464.18 30.035 464.965 29.2513 464.965 28.2847V27.0801C464.965 26.1134 464.18 25.3298 463.212 25.3298Z" fill="#A894E2"/>
<path d="M477.12 25.3298H471.621C470.653 25.3298 469.868 26.1134 469.868 27.0801V28.2847C469.868 29.2513 470.653 30.035 471.621 30.035H477.12C478.088 30.035 478.872 29.2513 478.872 28.2847V27.0801C478.872 26.1134 478.088 25.3298 477.12 25.3298Z" fill="#A894E2"/>
<path d="M449.861 24.9369H421.98C421.011 24.9369 420.227 25.7205 420.227 26.6872V27.8918C420.227 28.8584 421.011 29.6421 421.98 29.6421H449.861C450.829 29.6421 451.614 28.8584 451.614 27.8918V26.6872C451.614 25.7205 450.829 24.9369 449.861 24.9369Z" fill="#A894E2"/>
<path d="M515.308 24.9369H487.427C486.459 24.9369 485.674 25.7205 485.674 26.6872V27.8918C485.674 28.8584 486.459 29.6421 487.427 29.6421H515.308C516.276 29.6421 517.061 28.8584 517.061 27.8918V26.6872C517.061 25.7205 516.276 24.9369 515.308 24.9369Z" fill="#A894E2"/>
<path d="M427.216 35.95H421.717C420.749 35.95 419.964 36.7337 419.964 37.7003V38.9049C419.964 39.8716 420.749 40.6552 421.717 40.6552H427.216C428.184 40.6552 428.969 39.8716 428.969 38.9049V37.7003C428.969 36.7337 428.184 35.95 427.216 35.95Z" fill="#A894E2"/>
<path d="M476.302 35.95H470.803C469.835 35.95 469.05 36.7337 469.05 37.7003V38.9049C469.05 39.8716 469.835 40.6552 470.803 40.6552H476.302C477.27 40.6552 478.054 39.8716 478.054 38.9049V37.7003C478.054 36.7337 477.27 35.95 476.302 35.95Z" fill="#A894E2"/>
<path d="M490.209 35.95H484.71C483.742 35.95 482.958 36.7337 482.958 37.7003V38.9049C482.958 39.8716 483.742 40.6552 484.71 40.6552H490.209C491.177 40.6552 491.962 39.8716 491.962 38.9049V37.7003C491.962 36.7337 491.177 35.95 490.209 35.95Z" fill="#A894E2"/>
<path d="M462.95 35.5571H435.069C434.101 35.5571 433.316 36.3407 433.316 37.3074V38.512C433.316 39.4787 434.101 40.2623 435.069 40.2623H462.95C463.918 40.2623 464.703 39.4787 464.703 38.512V37.3074C464.703 36.3407 463.918 35.5571 462.95 35.5571Z" fill="#A894E2"/>
<path d="M528.397 35.5571H500.516C499.548 35.5571 498.763 36.3407 498.763 37.3074V38.512C498.763 39.4787 499.548 40.2623 500.516 40.2623H528.397C529.365 40.2623 530.15 39.4787 530.15 38.512V37.3074C530.15 36.3407 529.365 35.5571 528.397 35.5571Z" fill="#A894E2"/>
<path d="M440.306 46.5703H434.807C433.839 46.5703 433.054 47.3539 433.054 48.3206V49.5251C433.054 50.4918 433.839 51.2755 434.807 51.2755H440.306C441.274 51.2755 442.058 50.4918 442.058 49.5251V48.3206C442.058 47.3539 441.274 46.5703 440.306 46.5703Z" fill="#A894E2"/>
<path d="M489.391 46.5703H483.893C482.924 46.5703 482.14 47.3539 482.14 48.3206V49.5251C482.14 50.4918 482.924 51.2755 483.893 51.2755H489.391C490.359 51.2755 491.144 50.4918 491.144 49.5251V48.3206C491.144 47.3539 490.359 46.5703 489.391 46.5703Z" fill="#A894E2"/>
<path d="M503.299 46.5703H497.8C496.832 46.5703 496.047 47.3539 496.047 48.3206V49.5251C496.047 50.4918 496.832 51.2755 497.8 51.2755H503.299C504.267 51.2755 505.051 50.4918 505.051 49.5251V48.3206C505.051 47.3539 504.267 46.5703 503.299 46.5703Z" fill="#A894E2"/>
<path d="M476.04 46.1762H448.159C447.191 46.1762 446.406 46.9598 446.406 47.9265V49.1311C446.406 50.0977 447.191 50.8814 448.159 50.8814H476.04C477.008 50.8814 477.793 50.0977 477.793 49.1311V47.9265C477.793 46.9598 477.008 46.1762 476.04 46.1762Z" fill="#A894E2"/>
<path d="M541.487 46.1762H513.606C512.638 46.1762 511.853 46.9598 511.853 47.9265V49.1311C511.853 50.0977 512.638 50.8814 513.606 50.8814H541.487C542.455 50.8814 543.24 50.0977 543.24 49.1311V47.9265C543.24 46.9598 542.455 46.1762 541.487 46.1762Z" fill="#A894E2"/>
<path d="M453.395 57.1881H447.896C446.928 57.1881 446.143 57.9718 446.143 58.9384V60.143C446.143 61.1097 446.928 61.8933 447.896 61.8933H453.395C454.363 61.8933 455.147 61.1097 455.147 60.143V58.9384C455.147 57.9718 454.363 57.1881 453.395 57.1881Z" fill="#A894E2"/>
<path d="M502.481 57.1881H496.982C496.014 57.1881 495.229 57.9718 495.229 58.9384V60.143C495.229 61.1097 496.014 61.8933 496.982 61.8933H502.481C503.449 61.8933 504.233 61.1097 504.233 60.143V58.9384C504.233 57.9718 503.449 57.1881 502.481 57.1881Z" fill="#A894E2"/>
<path d="M516.388 57.1881H510.889C509.921 57.1881 509.137 57.9718 509.137 58.9384V60.143C509.137 61.1097 509.921 61.8933 510.889 61.8933H516.388C517.356 61.8933 518.141 61.1097 518.141 60.143V58.9384C518.141 57.9718 517.356 57.1881 516.388 57.1881Z" fill="#A894E2"/>
<path d="M489.129 56.7964H461.248C460.28 56.7964 459.495 57.5801 459.495 58.5467V59.7513C459.495 60.718 460.28 61.5016 461.248 61.5016H489.129C490.097 61.5016 490.882 60.718 490.882 59.7513V58.5467C490.882 57.5801 490.097 56.7964 489.129 56.7964Z" fill="#A894E2"/>
<path d="M463.212 99.4174H457.714C456.745 99.4174 455.961 100.201 455.961 101.168V102.372C455.961 103.339 456.745 104.123 457.714 104.123H463.212C464.18 104.123 464.965 103.339 464.965 102.372V101.168C464.965 100.201 464.18 99.4174 463.212 99.4174Z" fill="#A894E2"/>
<path d="M477.12 99.4174H471.621C470.653 99.4174 469.868 100.201 469.868 101.168V102.372C469.868 103.339 470.653 104.123 471.621 104.123H477.12C478.088 104.123 478.872 103.339 478.872 102.372V101.168C478.872 100.201 478.088 99.4174 477.12 99.4174Z" fill="#A894E2"/>
<path d="M515.308 99.8103H487.427C486.459 99.8103 485.674 100.594 485.674 101.561V102.765C485.674 103.732 486.459 104.516 487.427 104.516H515.308C516.276 104.516 517.061 103.732 517.061 102.765V101.561C517.061 100.594 516.276 99.8103 515.308 99.8103Z" fill="#A894E2"/>
<path d="M414.126 99.4174H408.628C407.66 99.4174 406.875 100.201 406.875 101.168V102.372C406.875 103.339 407.66 104.123 408.628 104.123H414.126C415.095 104.123 415.879 103.339 415.879 102.372V101.168C415.879 100.201 415.095 99.4174 414.126 99.4174Z" fill="#A894E2"/>
<path d="M449.861 99.8103H421.98C421.011 99.8103 420.227 100.594 420.227 101.561V102.765C420.227 103.732 421.011 104.516 421.98 104.516H449.861C450.829 104.516 451.614 103.732 451.614 102.765V101.561C451.614 100.594 450.829 99.8103 449.861 99.8103Z" fill="#A894E2"/>
<path d="M427.216 88.7972H421.717C420.749 88.7972 419.964 89.5809 419.964 90.5475V91.7521C419.964 92.7188 420.749 93.5024 421.717 93.5024H427.216C428.184 93.5024 428.969 92.7188 428.969 91.7521V90.5475C428.969 89.5809 428.184 88.7972 427.216 88.7972Z" fill="#A894E2"/>
<path d="M476.302 88.7972H470.803C469.835 88.7972 469.05 89.5809 469.05 90.5475V91.7521C469.05 92.7188 469.835 93.5024 470.803 93.5024H476.302C477.27 93.5024 478.054 92.7188 478.054 91.7521V90.5475C478.054 89.5809 477.27 88.7972 476.302 88.7972Z" fill="#A894E2"/>
<path d="M490.209 88.7972H484.71C483.742 88.7972 482.958 89.5809 482.958 90.5475V91.7521C482.958 92.7188 483.742 93.5024 484.71 93.5024H490.209C491.177 93.5024 491.962 92.7188 491.962 91.7521V90.5475C491.962 89.5809 491.177 88.7972 490.209 88.7972Z" fill="#A894E2"/>
<path d="M462.95 89.1913H435.069C434.101 89.1913 433.316 89.9749 433.316 90.9416V92.1462C433.316 93.1129 434.101 93.8965 435.069 93.8965H462.95C463.918 93.8965 464.703 93.1129 464.703 92.1462V90.9416C464.703 89.9749 463.918 89.1913 462.95 89.1913Z" fill="#A894E2"/>
<path d="M440.306 78.1781H434.807C433.839 78.1781 433.054 78.9618 433.054 79.9285V81.133C433.054 82.0997 433.839 82.8834 434.807 82.8834H440.306C441.274 82.8834 442.058 82.0997 442.058 81.133V79.9285C442.058 78.9618 441.274 78.1781 440.306 78.1781Z" fill="#A894E2"/>
<path d="M489.391 78.1781H483.893C482.924 78.1781 482.14 78.9618 482.14 79.9285V81.133C482.14 82.0997 482.924 82.8834 483.893 82.8834H489.391C490.359 82.8834 491.144 82.0997 491.144 81.133V79.9285C491.144 78.9618 490.359 78.1781 489.391 78.1781Z" fill="#A894E2"/>
<path d="M503.299 78.1781H497.8C496.832 78.1781 496.047 78.9618 496.047 79.9285V81.133C496.047 82.0997 496.832 82.8834 497.8 82.8834H503.299C504.267 82.8834 505.051 82.0997 505.051 81.133V79.9285C505.051 78.9618 504.267 78.1781 503.299 78.1781Z" fill="#A894E2"/>
<path d="M476.04 78.571H448.159C447.191 78.571 446.406 79.3547 446.406 80.3214V81.5259C446.406 82.4926 447.191 83.2763 448.159 83.2763H476.04C477.008 83.2763 477.793 82.4926 477.793 81.5259V80.3214C477.793 79.3547 477.008 78.571 476.04 78.571Z" fill="#A894E2"/>
<path d="M453.395 67.5579H447.896C446.928 67.5579 446.143 68.3416 446.143 69.3082V70.5128C446.143 71.4795 446.928 72.2631 447.896 72.2631H453.395C454.363 72.2631 455.147 71.4795 455.147 70.5128V69.3082C455.147 68.3416 454.363 67.5579 453.395 67.5579Z" fill="#A894E2"/>
<path d="M502.481 67.5579H496.982C496.014 67.5579 495.229 68.3416 495.229 69.3082V70.5128C495.229 71.4795 496.014 72.2631 496.982 72.2631H502.481C503.449 72.2631 504.233 71.4795 504.233 70.5128V69.3082C504.233 68.3416 503.449 67.5579 502.481 67.5579Z" fill="#A894E2"/>
<path d="M516.388 67.5579H510.889C509.921 67.5579 509.137 68.3416 509.137 69.3082V70.5128C509.137 71.4795 509.921 72.2631 510.889 72.2631H516.388C517.356 72.2631 518.141 71.4795 518.141 70.5128V69.3082C518.141 68.3416 517.356 67.5579 516.388 67.5579Z" fill="#A894E2"/>
<path d="M489.129 67.9508H461.248C460.28 67.9508 459.495 68.7345 459.495 69.7011V70.9057C459.495 71.8724 460.28 72.656 461.248 72.656H489.129C490.097 72.656 490.882 71.8724 490.882 70.9057V69.7011C490.882 68.7345 490.097 67.9508 489.129 67.9508Z" fill="#A894E2"/>
<path d="M592.154 169.153C592.266 169.125 592.373 169.077 592.47 169.014L604.526 161.13C604.671 161.035 604.791 160.906 604.873 160.753C604.956 160.6 604.999 160.429 604.999 160.256C604.999 160.082 604.956 159.912 604.873 159.759C604.791 159.606 604.671 159.476 604.526 159.381L591.995 151.185C591.763 151.033 591.479 150.98 591.208 151.036C590.936 151.093 590.698 151.255 590.545 151.487C590.393 151.719 590.34 152.002 590.396 152.273C590.453 152.545 590.615 152.782 590.848 152.934L602.039 160.255L591.323 167.26C591.116 167.396 590.965 167.6 590.894 167.837C590.824 168.074 590.84 168.328 590.939 168.554C591.038 168.78 591.214 168.964 591.436 169.073C591.657 169.182 591.911 169.21 592.151 169.15L592.154 169.153Z" fill="#090814"/>
<path d="M573.114 170.028C573.316 169.977 573.498 169.866 573.637 169.711C573.776 169.556 573.865 169.363 573.894 169.156C573.922 168.95 573.888 168.74 573.797 168.553C573.705 168.366 573.559 168.211 573.379 168.107L562.265 161.744L573.006 153.776C573.229 153.611 573.377 153.364 573.418 153.09C573.458 152.815 573.388 152.536 573.223 152.313C573.057 152.091 572.81 151.943 572.535 151.903C572.26 151.862 571.981 151.932 571.758 152.097L559.732 161.018C559.592 161.121 559.48 161.258 559.406 161.415C559.332 161.573 559.299 161.746 559.309 161.92C559.319 162.093 559.373 162.262 559.464 162.409C559.556 162.557 559.684 162.68 559.835 162.766L572.336 169.922C572.572 170.057 572.851 170.095 573.114 170.028Z" fill="#090814"/>
<path d="M590.955 176.057C591.057 176.031 591.153 175.99 591.242 175.935C591.36 175.864 591.462 175.77 591.543 175.659C591.625 175.548 591.683 175.422 591.716 175.289C591.749 175.155 591.755 175.016 591.733 174.881C591.712 174.745 591.665 174.614 591.593 174.497L574.502 146.438C574.43 146.321 574.336 146.219 574.225 146.138C574.114 146.056 573.988 145.998 573.854 145.966C573.72 145.933 573.582 145.928 573.446 145.949C573.31 145.97 573.179 146.018 573.062 146.089C572.944 146.161 572.842 146.255 572.761 146.366C572.679 146.477 572.621 146.603 572.588 146.736C572.556 146.87 572.55 147.008 572.571 147.144C572.593 147.28 572.641 147.41 572.712 147.528L589.803 175.588C589.92 175.78 590.095 175.929 590.304 176.013C590.512 176.098 590.742 176.113 590.959 176.058L590.955 176.057Z" fill="#090814"/>
</g>
<defs>
<clipPath id="clip0_16_146">
<rect width="605" height="456" fill="white"/>
</clipPath>
</defs>
</svg>
